<?xml version="1.0" encoding="utf-8"?>
<!-- Generator: Adobe Illustrator 27.0.0, SVG Export Plug-In . SVG Version: 6.00 Build 0)  -->
<svg version="1.1" xmlns="http://www.w3.org/2000/svg" xmlns:xlink="http://www.w3.org/1999/xlink" x="0px" y="0px"
	 viewBox="0 0 841.89 595.28" style="enable-background:new 0 0 841.89 595.28;" xml:space="preserve">
<style type="text/css">
	.st0{fill:#FFFFFF;}
	.st1{fill:#5D5A87;}
	.st2{fill:#00A8E6;}
	.st3{fill:#7BB342;}
	.st4{fill:#C5D82D;}
	.st5{fill:#A4CD39;}
	.st6{fill:#9D6636;}
	.st7{clip-path:url(#SVGID_00000045582341964460458600000012424006154613529238_);fill:#CA8B2E;}
	.st8{clip-path:url(#SVGID_00000045582341964460458600000012424006154613529238_);fill:#C98A2E;}
	.st9{clip-path:url(#SVGID_00000045582341964460458600000012424006154613529238_);fill:#C8892E;}
	.st10{clip-path:url(#SVGID_00000045582341964460458600000012424006154613529238_);fill:#C7882F;}
	.st11{clip-path:url(#SVGID_00000045582341964460458600000012424006154613529238_);fill:#C6882F;}
	.st12{clip-path:url(#SVGID_00000045582341964460458600000012424006154613529238_);fill:#C5872F;}
	.st13{clip-path:url(#SVGID_00000045582341964460458600000012424006154613529238_);fill:#C4862F;}
	.st14{clip-path:url(#SVGID_00000045582341964460458600000012424006154613529238_);fill:#C3852F;}
	.st15{clip-path:url(#SVGID_00000045582341964460458600000012424006154613529238_);fill:#C2842F;}
	.st16{clip-path:url(#SVGID_00000045582341964460458600000012424006154613529238_);fill:#C18330;}
	.st17{clip-path:url(#SVGID_00000045582341964460458600000012424006154613529238_);fill:#C08330;}
	.st18{clip-path:url(#SVGID_00000045582341964460458600000012424006154613529238_);fill:#BF8230;}
	.st19{clip-path:url(#SVGID_00000045582341964460458600000012424006154613529238_);fill:#BE8130;}
	.st20{clip-path:url(#SVGID_00000045582341964460458600000012424006154613529238_);fill:#BD8030;}
	.st21{clip-path:url(#SVGID_00000045582341964460458600000012424006154613529238_);fill:#BC7F31;}
	.st22{clip-path:url(#SVGID_00000045582341964460458600000012424006154613529238_);fill:#BB7E31;}
	.st23{clip-path:url(#SVGID_00000045582341964460458600000012424006154613529238_);fill:#BA7E31;}
	.st24{clip-path:url(#SVGID_00000045582341964460458600000012424006154613529238_);fill:#B97D31;}
	.st25{clip-path:url(#SVGID_00000045582341964460458600000012424006154613529238_);fill:#B87C31;}
	.st26{clip-path:url(#SVGID_00000045582341964460458600000012424006154613529238_);fill:#B77B31;}
	.st27{clip-path:url(#SVGID_00000045582341964460458600000012424006154613529238_);fill:#B67A32;}
	.st28{clip-path:url(#SVGID_00000045582341964460458600000012424006154613529238_);fill:#B57932;}
	.st29{clip-path:url(#SVGID_00000045582341964460458600000012424006154613529238_);fill:#B47932;}
	.st30{clip-path:url(#SVGID_00000045582341964460458600000012424006154613529238_);fill:#B27832;}
	.st31{clip-path:url(#SVGID_00000045582341964460458600000012424006154613529238_);fill:#B17732;}
	.st32{clip-path:url(#SVGID_00000045582341964460458600000012424006154613529238_);fill:#B07633;}
	.st33{clip-path:url(#SVGID_00000045582341964460458600000012424006154613529238_);fill:#AF7533;}
	.st34{clip-path:url(#SVGID_00000045582341964460458600000012424006154613529238_);fill:#AE7433;}
	.st35{clip-path:url(#SVGID_00000045582341964460458600000012424006154613529238_);fill:#AD7333;}
	.st36{clip-path:url(#SVGID_00000045582341964460458600000012424006154613529238_);fill:#AC7333;}
	.st37{clip-path:url(#SVGID_00000045582341964460458600000012424006154613529238_);fill:#AB7233;}
	.st38{clip-path:url(#SVGID_00000045582341964460458600000012424006154613529238_);fill:#AA7134;}
	.st39{clip-path:url(#SVGID_00000045582341964460458600000012424006154613529238_);fill:#A97034;}
	.st40{clip-path:url(#SVGID_00000045582341964460458600000012424006154613529238_);fill:#A86F34;}
	.st41{clip-path:url(#SVGID_00000045582341964460458600000012424006154613529238_);fill:#A76E34;}
	.st42{clip-path:url(#SVGID_00000045582341964460458600000012424006154613529238_);fill:#A66E34;}
	.st43{clip-path:url(#SVGID_00000045582341964460458600000012424006154613529238_);fill:#A56D35;}
	.st44{clip-path:url(#SVGID_00000045582341964460458600000012424006154613529238_);fill:#A46C35;}
	.st45{clip-path:url(#SVGID_00000045582341964460458600000012424006154613529238_);fill:#A36B35;}
	.st46{clip-path:url(#SVGID_00000045582341964460458600000012424006154613529238_);fill:#A26A35;}
	.st47{clip-path:url(#SVGID_00000045582341964460458600000012424006154613529238_);fill:#A16935;}
	.st48{clip-path:url(#SVGID_00000045582341964460458600000012424006154613529238_);fill:#A06935;}
	.st49{clip-path:url(#SVGID_00000045582341964460458600000012424006154613529238_);fill:#9F6836;}
	.st50{clip-path:url(#SVGID_00000045582341964460458600000012424006154613529238_);fill:#9E6736;}
	.st51{clip-path:url(#SVGID_00000045582341964460458600000012424006154613529238_);fill:#9D6636;}
</style>
<g id="Layer_1">
</g>
<g id="logos">
	<g>
		<g>
			<path class="st0" d="M690.75,336.91c-1.22-5.44-21.47-23.57-14.53-28.07c0,0,6.75-8.1,6.75-8.1
				c-7.43-16.4-29.8-30.76-44.55-15.44c-2.21-7.59-6.34-14.75-11-21.42c1.76-4.43,8.42-2.78,12.43-4.67
				c13.24-6.32,7.53-15.65,11.7-23.49c4.66-8.75,14.31-2.2,14.31-2.2c-4.73-30.49-45.18-31.76-49.83,6.78
				c-7.06-14.32-20.88-23.72-38.31-23.35c-36.04-0.38-38.46,34.85-38.46,34.85c26.49-14,21.1,1.75,39.1,15.59
				c4.86,3.2,10.41,4.83,16.48,4.83c5.18,0,7.3,9.14-1.56,9.14c-10.54,0-21.97,4.68-25.73,15.03c-6.92-19.07-35.92-15.74-48.3-3.02
				c-9,8.63-17.46,23.36-15.83,18.55c5.39-15.31-6.56-31.11-23.23-28.95c-8.89-0.7-26.5,12.19-30.79,15.39
				c-3.55-7.02-11.75-17.95-18.51-21.22c-11.37-6.69-30.96-3.49-33.27,11.59c-5.95-9.69-23.8,2.46-27.68,5.46l-0.73-45.05
				l-18.79,11.2l-49.18,9.74l4.87,23.63c-7.95-14.42-53.81-20.96-55.74-20.99l-3.3-17.17l-35.73,34.13
				c-3.8-6.57-22.84-42.49-22.84-42.49l-42.28,92.92l16.31,8.96c0,0,14.97-23.95,19.58-31.52l22.45,32.29l29.02-23.59l10.97,38.18
				l14.62-2.97l-3.79-26.42c8.86,12.05,28.6,14.3,42.06,9.89l-1.72,6.63l25.32-6.5l-1.32,13.54l27.08-7.6l-0.33,7.27l29.72-12.88
				l-0.99,12.33l28.34-10.5c0,0,11.3,11.38,34.08,11.1c9.71,0.65,22.51-4.91,19.95-16.64c16.83,13.44,41.44,8.93,60.78-0.65
				c13.33,14.48,46.33,8.53,57.01-6.53c-0.02,3.58,24.97,24.77,39.11,10.04c12.62-1.21,20.01-7.39,20.01-7.39
				C639.1,352.63,697.46,367.04,690.75,336.91z"/>
			<path class="st0" d="M241.05,370.23l-10.16-35.35l-27.33,22.22l-21.17-30.45c-6.16,9.96-15.48,24.86-15.6,25.05l-2.5,4.01
				l-24.52-13.47l48.4-106.39l4.76,8.98c0.16,0.3,13.09,24.7,19.65,36.74l37.67-35.98l4.36,22.69c8.82,1.34,29.73,5.16,43.75,12.59
				l-3.04-14.73l53.28-10.55l25.46-15.18l0.72,44.65c5.37-2.97,12.52-5.9,18.56-4.79c0.61,0.11,1.2,0.26,1.77,0.45
				c2.17-3.91,5.57-7.05,10-9.15c8.61-4.09,19.89-3.63,28.13,1.14c6.42,3.2,13.28,11.42,17.7,18.33
				c12.74-8.94,22.49-13.36,29.07-13.11c9.2-1.04,18.05,2.51,23.75,9.55c2.42,2.98,4.12,6.38,5.07,9.96
				c2.13-2.64,4.47-5.32,6.89-7.65c8.98-9.17,24.73-13.82,37.51-11.07c5.9,1.27,10.78,4.03,14.32,8
				c5.42-6.13,13.47-9.17,20.84-10.08c-4.59-0.81-8.87-2.52-12.79-5.1l-0.29-0.21c-6.24-4.8-9.87-9.72-12.78-13.68
				c-2.76-3.75-4.29-5.73-6.23-6.2c-2.62-0.62-7.58,0.97-14.72,4.75l-7.94,4.2l0.62-8.96c0.03-0.41,0.75-10.08,6.38-19.74
				c5.28-9.05,15.88-19.77,36.49-19.77c0.18,0,0.37,0,0.55,0c14.4-0.28,27.26,5.53,36.16,15.96c1.91-5.15,4.63-9.59,8.08-13.12
				c5.42-5.55,12.48-8.67,19.88-8.8c14.61-0.25,26.51,10.76,28.99,26.77l1.76,11.36l-9.51-6.46c-0.96-0.63-3.54-1.83-5.21-1.41
				c-0.29,0.07-1.06,0.27-1.89,1.82c-0.96,1.8-1.16,3.99-1.4,6.52c-0.55,5.81-1.29,13.76-12.56,19.13
				c-2.22,1.05-4.59,1.33-6.67,1.58c-0.26,0.03-0.56,0.07-0.87,0.11c2.61,4.1,4.69,7.95,6.3,11.69c5.07-2.98,10.84-3.98,17.03-2.92
				c11.9,2.05,24.13,12.12,29.73,24.5l1.29,2.86l-8.92,10.7c0.86,2.81,5.87,9.07,8.38,12.2c4.26,5.32,6.7,8.47,7.35,11.38l0,0
				c2.52,11.34-2.5,19.8-13.43,22.64c-14.4,3.74-39.92-3.28-49.34-14.36c-3.6,1.95-9.09,4.26-16.13,5.19
				c-6.79,6.02-16.13,7.02-26.52,2.81c-4.37-1.77-10.85-5.61-15.2-9.78c-7.36,6.63-18.67,11.12-30.61,11.88
				c-10.78,0.69-20.38-1.92-26.94-7.21c-20.74,9.47-40.69,10.58-55.53,3.31c-0.67,1.8-1.68,3.49-3.01,5.04
				c-5.6,6.5-14.98,8.35-21.41,7.98c-0.24,0-0.48,0-0.71,0c-18.03,0-29.43-6.8-34.21-10.41l-32.97,12.22l0.95-11.84l-29.43,12.75
				l0.38-8.35l-27.46,7.7l1.34-13.71l-26.63,6.83l1.81-6.94c-9.46,1.22-19.96-0.13-28.4-4.53l2.64,18.39L241.05,370.23z
				 M236.32,317.58l11.78,41.01l5.47-1.11l-5.95-41.48l11.81,16.05c7.34,9.98,24.65,11.98,36.48,8.1l8.7-2.85l-1.89,7.28l24.02-6.16
				l-1.3,13.37l26.71-7.49l-0.28,6.18l30.02-13.01l-1.03,12.82l24-8.9l2.27,2.29c0.39,0.38,10.36,9.88,30.47,9.62l0.2,0l0.2,0.01
				c5.19,0.34,10.82-1.55,13.37-4.51c1.46-1.7,1.89-3.62,1.36-6.07l-3-13.77l11.01,8.79c18.82,15.03,47.19,2.86,55.44-1.23
				l3.36-1.67l2.54,2.76c4.4,4.79,12.32,7.19,21.71,6.59c11.64-0.74,22.7-5.82,27.53-12.63l9.17-12.94l-0.09,14.81
				c2.11,2.78,11,9.95,19.75,11.07c4.45,0.57,7.96-0.57,10.75-3.47l1.28-1.34l1.85-0.18c10.76-1.03,17.24-6.22,17.3-6.27l5.82-4.74
				l2.16,7.18c1.99,6.69,26.2,16.77,40.4,13.08c5.66-1.47,7.52-4.66,6.21-10.68c-0.49-1.26-3.34-4.81-5.42-7.41
				c-6.99-8.73-11.5-14.88-10.58-20.53c0.32-1.98,1.33-3.71,2.87-4.97l4.26-5.11c-4.69-8.15-13.09-14.69-20.92-16.04
				c-5.41-0.94-10.15,0.66-14.07,4.73l-5.99,6.22l-2.42-8.29c-1.78-6.11-5.05-12.45-10.29-19.95l-1.54-2.21l0.99-2.5
				c2.21-5.57,7.72-6.23,11.37-6.66c1.33-0.16,2.83-0.34,3.57-0.68c6.13-2.93,6.41-5.81,6.9-11.04c0.3-3.15,0.63-6.71,2.53-10.28
				c2.42-4.54,5.86-6.22,8.33-6.83c0.97-0.24,1.93-0.35,2.87-0.37c-3.72-7.1-10.33-10.28-16.36-10.18
				c-8.31,0.14-18.79,6.75-20.99,24.91l-2.01,16.69l-7.43-15.08c-6.6-13.38-18.91-20.89-33.72-20.56l-0.08,0l-0.08,0
				c-0.17,0-0.34,0-0.5,0c-19.74,0-27.69,12.3-30.86,21.21c13.17-4.64,18.25,0.38,24.29,8.59c2.64,3.59,5.63,7.66,10.67,11.56
				c4,2.59,8.56,3.91,13.58,3.91c5.23,0,9.48,4.35,9.48,9.71c0,2.69-1.12,5.12-3.14,6.86c-1.38,1.18-3.86,2.58-7.9,2.58
				c-7.74,0-17.88,3.07-21.02,11.74l-4.7,12.96l-4.7-12.96c-1.84-5.08-5.79-8.3-11.72-9.58c-9.36-2.01-21.79,1.65-28.3,8.33
				l-0.12,0.12c-4.6,4.41-9.13,10.64-12.13,14.76c-0.97,1.33-1.73,2.38-2.35,3.16c-2.84,3.62-5.52,3.29-7.27,2.39
				c-0.93-0.48-3.83-2.4-2.28-6.98c2.04-5.78,1.03-11.94-2.68-16.52c-3.65-4.51-9.18-6.65-15.17-5.87l-0.52,0.07l-0.52-0.04
				c-3.33-0.27-12.55,3.35-27.42,14.41l-4.76,3.54l-2.68-5.3c-3.53-6.97-11.06-16.48-16.23-18.98l-0.36-0.19
				c-5.35-3.15-13.32-3.5-18.94-0.83c-3.93,1.87-6.24,4.85-6.85,8.87l-2.06,13.47l-7.14-11.61c-0.44-0.72-0.95-1.06-1.8-1.22
				c-4.56-0.83-13.6,4.18-18.56,8.02l-7.9,6.11l-0.75-46.39l-12.11,7.22l-45.09,8.93l10.52,51.02l-15.94-28.9
				c-5.68-10.31-42.88-17.75-51.54-18.41l-3.96-0.07l-2.34-12.16l-33.7,32.18l-3.18-5.5c-2.63-4.55-12.25-22.56-18.16-33.68
				l-36.15,79.46l8.1,4.45c4.46-7.15,13.65-21.88,17.05-27.46l3.99-6.56l23.76,34.17L236.32,317.58z"/>
		</g>
		<g>
			<g>
				<g>
					<path class="st1" d="M212.19,299.01c-5.11-8.63-10.51-18.14-16.21-28.53c-1.26-2.26-2.97-5.53-5.15-9.8l-35.82,80.55
						c0.5,0.25,0.84,0.42,1.01,0.5l5.02,2.25c7.89-12.34,20.87-33.79,20.87-33.79l23.5,33.8l31.54-25.63l10.56,41.34l6.54-1.38
						l-9.93-86.96L212.19,299.01z"/>
				</g>
				<g>
					<path class="st1" d="M300.91,295.11c-6.95-5.86-16.59-10.34-28.9-13.44c-3.35-0.84-5.4-1.26-6.16-1.26l2.51,11.06
						c4.44,0.75,7.92,1.42,10.43,2.01c7.21,1.68,12.69,3.64,16.46,5.91c4.52,2.68,7.62,5.78,9.3,9.3c-1.93-1.26-3.98-2.05-6.16-2.39
						c-4.36-1.09-8.13-1.63-11.31-1.63c-3.69,0-7,0.38-9.93,1.13c-5.53,1.43-10.14,3.52-13.82,6.28c-4.78,3.52-7.17,7.71-7.17,12.57
						c0,5.86,3.19,10.55,9.58,14.07c5.21,2.85,11,4.27,17.39,4.27c6.89,0,12.64-1.21,17.26-3.64c2.6-1.34,4.91-2.97,6.93-4.9
						L304.43,345l8.92-2.01v-23C312.26,309.52,308.11,301.23,300.91,295.11z M296.39,336.83c-3.27,1.76-6.62,2.64-10.05,2.64
						c-6.54,0-9.8-2.26-9.8-6.79c0-2.68,1.13-4.98,3.39-6.91c1.93-1.59,4.31-2.72,7.16-3.39c1.51-0.33,2.43-0.5,2.77-0.5h1.88
						c5.95,0,9.38,1.8,10.3,5.4c0.17,0.67,0.25,1.21,0.25,1.63C302.29,332.1,300.32,334.74,296.39,336.83z"/>
				</g>
				<g>
					<path class="st1" d="M313.49,303.41l12.31-0.52l-0.25,49.24c2.09-0.42,10.45-2.25,11.7-2.67l-5.04-47.55l13.82-1.13l2.13-33.43
						l-40.09,8.17L313.49,303.41z"/>
				</g>
				<g>
					<path class="st1" d="M390.14,291.97c-3.44,0-6.49,1.26-9.17,3.77c-2.18,2.1-3.77,3.64-4.78,4.65
						c-3.18,3.1-6.75,7.75-10.68,13.95l1.51-55.04l-9.8,5.78l-4.27,84.82l11.36-6.28l5.3-30.16l12.49-13.45v52.4l14.07-6.91l1-14.07
						c0.67-9.38,1-17.43,1-24.13c0-5.7-0.54-9.97-1.63-12.82C395.88,292.81,393.75,291.97,390.14,291.97z"/>
				</g>
				<g>
					<path class="st1" d="M443.66,327c-7.97-10.09-14.46-18.23-19.48-24.44c-2.33-3-3.46-5.74-3.4-8.21
						c0.05-2.19,1.34-3.82,3.87-4.89c1.02-0.26,2.04-0.38,3.06-0.35c4.24,0.11,9.76,5.65,10.5,15.19l6.32-6.64
						c-0.71-1.35-1.42-2.46-2.13-3.33c-3.76-4.85-7.59-8.41-11.51-10.7c-2.92-1.69-6.36-2.58-10.33-2.68
						c-3.04-0.08-5.69,0.21-7.92,0.87c-2.23,0.66-4.3,2.15-6.21,4.48c-1.91,2.33-2.89,4.73-2.95,7.2c-0.02,0.86,0.1,1.71,0.35,2.57
						c0.48,2.77,2.25,6.04,5.29,9.83c1.16,1.46,3.77,4.28,7.82,8.47l8.78,9.06c8.01,8.38,12.82,13.72,14.42,16.04
						c1.5,2.89,1.95,4.99,1.36,6.31c-0.68,1.51-2.04,2.23-4.07,2.18c-0.74-0.02-1.34-0.08-1.8-0.19c-0.83-0.02-4.06-1.91-9.7-5.66
						c-2.27-1.48-5-3.36-8.17-5.62l-8.48,10.11c5.02,3.89,22.29,9.59,35.21,7.1c4.45-0.86,8.9-3.88,9.36-8.32
						c0.17-1.61-0.15-3.04-0.59-4.29C451.88,338.09,448.67,333.4,443.66,327z"/>
				</g>
				<g>
					<path class="st1" d="M687.04,338.39c-1.34-2.6-4.36-6.66-9.05-12.19c-7.46-8.71-13.53-15.75-18.22-21.11
						c-1.82-2.17-2.86-4.18-3.17-6.06c-0.01-0.44-0.04-0.88-0.09-1.32c0.08-1.82,1.2-3.22,3.38-4.19c0.92-0.25,1.84-0.38,2.76-0.38
						c3.85,0,8.38,3.14,13.57,9.43l1.88-2.26c-0.67-1.17-1.34-2.14-2.01-2.89c-3.52-4.19-7.08-7.25-10.68-9.17
						c-2.68-1.42-5.82-2.13-9.43-2.13c-2.76,0-5.15,0.31-7.16,0.94c-2.01,0.63-3.85,1.99-5.53,4.09c-1.68,2.09-2.51,4.23-2.51,6.41
						c0,0.75,0.12,1.51,0.38,2.26c0.5,2.43,2.18,5.28,5.03,8.55c1.09,1.26,3.52,3.69,7.29,7.29l8.17,7.79
						c7.46,7.21,11.94,11.81,13.45,13.82c1.42,2.51,1.89,4.36,1.38,5.53c-0.59,1.34-1.8,2.01-3.64,2.01c-0.67,0-1.21-0.04-1.63-0.12
						c-0.75,0-3.73-1.59-8.92-4.78c-2.1-1.26-4.61-2.85-7.54-4.78l-7.46,9.1c4.65,3.32,20.44,7.96,32.1,5.48
						c4.01-0.86,7.98-3.62,8.29-7.54C687.78,340.74,687.46,339.48,687.04,338.39z"/>
				</g>
				<g>
					<path class="st1" d="M526.82,333.4c0,0,38.72-6.62,38.03-30.84c-0.46-16.33-27.2-16.33-40.83-3.27
						c-13.63,13.07-12.12,35.15,2.72,43.14c11.28,6.07,31.52,1.66,42.81-6.57l-2.17-10.57C554.35,338.96,532.65,341.33,526.82,333.4
						z M526.22,323.14c-1.18-2.11-1.31-4.42-0.38-6.94c0.81-2.1,2.19-4.04,4.14-5.83c1.04-0.93,1.69-1.47,1.96-1.62l1.48-0.83
						c1.06-0.59,2.06-1.05,3-1.39c0.35-0.1,0.69-0.21,1.04-0.33c2.71-0.72,4.86-0.24,6.45,1.42c0.43,0.46,0.73,0.85,0.92,1.17
						c1.4,2.51,1.02,5.45-1.15,8.83c-1.8,2.83-4.04,5-6.75,6.51C531.78,327.04,528.21,326.7,526.22,323.14z"/>
				</g>
				<g>
					<path class="st1" d="M497.42,334.67c-6.89,2.69-12.53,4.17-16.92,4.44c-5.25,0.35-9.56-0.46-12.93-2.41
						c2.3-0.05,4.44-0.56,6.43-1.51c4.21-1.56,7.63-3.25,10.25-5.05c3.04-2.08,5.56-4.26,7.55-6.54c3.75-4.3,6.37-8.63,7.85-13
						c1.95-5.6,1.55-10.41-1.2-14.41c-3.32-4.84-8.6-6.9-15.86-6.2c-5.9,0.59-11.49,2.69-16.75,6.3
						c-5.68,3.89-9.59,8.23-12.17,12.76c-3.12,5.48-5.39,16.06,0.25,23.29c6.22,7.98,14.93,12.52,24.33,13.49
						c9.05,0.91,19.53-0.84,31.44-5.25c3.24-1.21,5.17-2.02,5.79-2.45l-8.33-7.7C503.07,332.32,499.82,333.73,497.42,334.67z
						 M468.26,317.73c1.7-3.3,3.97-5.92,6.8-7.86c5.39-3.69,9.37-3.68,11.92,0.06c1.51,2.21,1.88,4.75,1.11,7.62
						c-0.69,2.4-2.02,4.68-3.99,6.85c-1.06,1.13-1.72,1.79-2,1.98l-1.55,1.07c-4.91,3.36-8.76,3.82-11.55,1.37
						c-0.52-0.46-0.9-0.86-1.13-1.21C466.07,324.97,466.2,321.68,468.26,317.73z"/>
				</g>
				<g>
					<path class="st1" d="M560.85,243.68c9.56,3.57,8.69,13.08,19.73,20.36c10.84,7.15,24.01,3.96,32.19-1.03l0,0.01l0.35-0.23
						c0.03-0.02,0.06-0.03,0.08-0.05c0,0,0,0,0-0.01l0.14-0.09l0.43-0.77c6.39-10.7-3.54-36.98-32.26-37.86
						c-30.77-0.94-35.63,22.29-35.63,22.29S551.29,240.11,560.85,243.68z"/>
				</g>
				<g>
					<path class="st1" d="M648.64,235.77c0.64-7.48,7.59-9.38,13.89-3.99c-1.33-7.23-10.97-18.39-24.97-12.18
						c-11.78,5.22-16.89,16.96-15.5,33.41c0,0.02,0,0.04,0,0.05l0,0c0.01,0.07,0.01,0.14,0.02,0.21c0.1,2,0.36,3.42,0.41,3.87
						l0.26,1.53c0.02,0.12,0.04,0.23,0.06,0.35l0.27,1.61l0.39,1.87c0.02,0.11,0.04,0.21,0.06,0.31c3.22-7.62,10.38-5.53,14.86-7.32
						C646.56,252.24,648,243.25,648.64,235.77z"/>
				</g>
				<g>
					<path class="st1" d="M624.68,315.74c-0.02-6.29-3.38-13.69-9.95-20.32c-11.34-11.44-40.63-9.37-42.36,9.73
						c-1.73,19.11,18.66,45.97,34.34,39.54c2.98-1.22,4.76-2.6,5.9-4.06c9.14-0.38,19.53-5.51,22.74-20.42
						c7.23-33.59-8.59-51.26-18.78-62.83C625.59,278.2,628.6,302.49,624.68,315.74z"/>
				</g>
			</g>
			<g>
				<g>
					<path class="st2" d="M245.51,356.66l-10.56-41.34l-31.54,25.63l-23.5-33.8c0,0-12.98,21.45-20.87,33.79l-5.02-2.25
						c-0.17-0.08-0.5-0.25-1.01-0.5l35.82-80.55c2.18,4.27,3.9,7.54,5.15,9.8c5.7,10.39,11.1,19.9,16.21,28.53l31.92-27.65
						l9.93,86.96L245.51,356.66z"/>
				</g>
				<g>
					<path class="st2" d="M281.13,339.94c-6.38,0-12.18-1.42-17.39-4.27c-6.38-3.52-9.58-8.21-9.58-14.07
						c0-4.86,2.39-9.05,7.16-12.57c3.69-2.77,8.29-4.86,13.82-6.28c2.93-0.75,6.24-1.13,9.93-1.13c3.18,0,6.95,0.54,11.31,1.63
						c2.18,0.34,4.23,1.13,6.16,2.39c-1.68-3.52-4.78-6.62-9.3-9.3c-3.77-2.26-9.26-4.23-16.46-5.91
						c-2.51-0.59-5.99-1.26-10.43-2.01l-2.51-11.06c0.75,0,2.8,0.42,6.16,1.26c12.32,3.1,21.95,7.58,28.9,13.44
						c7.2,6.12,11.35,14.41,12.44,24.88v23l-8.92,2.01l2.89-10.55c-2.02,1.93-4.33,3.56-6.93,4.9
						C293.77,338.73,288.02,339.94,281.13,339.94z M285.09,319.33c-2.85,0.67-5.24,1.8-7.16,3.39c-2.26,1.93-3.39,4.23-3.39,6.91
						c0,4.52,3.27,6.79,9.8,6.79c3.43,0,6.78-0.88,10.05-2.64c3.94-2.09,5.91-4.73,5.91-7.92c0-0.42-0.08-0.96-0.25-1.63
						c-0.92-3.6-4.36-5.4-10.3-5.4h-1.88C287.52,318.83,286.6,319,285.09,319.33z"/>
				</g>
				<g>
					<path class="st2" d="M344.04,297.72l-13.82,1.13l5.04,47.55c-1.26,0.42-9.61,2.25-11.7,2.67l0.25-49.24l-12.31,0.52l-5.4-27.9
						l40.09-8.17L344.04,297.72z"/>
				</g>
				<g>
					<path class="st2" d="M394.18,342.46l-14.07,6.91v-52.4l-12.49,13.45l-5.3,30.16l-11.36,6.28l4.27-84.82l9.8-5.78l-1.51,55.04
						c3.94-6.2,7.5-10.85,10.68-13.95c1-1.01,2.6-2.55,4.78-4.65c2.68-2.51,5.74-3.77,9.17-3.77c3.6,0,5.74,0.84,6.41,2.51
						c1.09,2.85,1.63,7.12,1.63,12.82c0,6.7-0.33,14.75-1,24.13L394.18,342.46z"/>
				</g>
				<g>
					<path class="st2" d="M442.51,350.64c-12.92,2.49-30.18-3.21-35.21-7.1l8.48-10.11c7.7,4.26,18.36,16.31,23.73,9.29
						c0.25-8.7-5.89-10.64-15.79-22.35c-7.22-8.13-19.95-18.16-21.9-27.35c-2.68-14.41,17.29-18.65,27.05-12.43
						c4.65,2.76,10.31,8.09,13.64,14.03l-6.32,6.64c-0.57-20.86-26.26-18.74-14.03-1.74c5.02,6.21,11.51,14.35,19.48,24.44
						C450.87,334.87,458.32,346.28,442.51,350.64z"/>
				</g>
			</g>
			<g>
				<path class="st2" d="M677.37,346.65c-11.66,2.48-27.45-2.16-32.1-5.48l7.46-9.1c2.93,1.93,5.44,3.52,7.54,4.78
					c5.19,3.19,8.17,4.78,8.92,4.78c0.42,0.08,0.96,0.12,1.63,0.12c1.84,0,3.06-0.67,3.64-2.01c0.5-1.17,0.04-3.02-1.38-5.53
					c-1.51-2.01-5.99-6.62-13.45-13.82l-8.17-7.79c-3.77-3.6-6.2-6.03-7.29-7.29c-2.85-3.27-4.52-6.12-5.03-8.55
					c-0.25-0.75-0.38-1.51-0.38-2.26c0-2.18,0.83-4.31,2.51-6.41c1.67-2.09,3.52-3.46,5.53-4.09c2.01-0.63,4.4-0.94,7.16-0.94
					c3.6,0,6.74,0.71,9.43,2.13c3.6,1.93,7.17,4.99,10.68,9.17c0.67,0.75,1.34,1.72,2.01,2.89l-1.88,2.26
					c-5.2-6.28-9.72-9.42-13.57-9.42c-0.92,0-1.84,0.12-2.76,0.38c-2.26,1.01-3.39,2.47-3.39,4.4c0,2.18,1.09,4.57,3.27,7.16
					c4.69,5.36,10.76,12.4,18.22,21.11c4.69,5.53,7.71,9.59,9.05,12.19c0.42,1.09,0.74,2.35,0.63,3.77
					C685.35,343.03,681.39,345.8,677.37,346.65z"/>
			</g>
			<g>
				<g>
					<path class="st2" d="M565.39,322.24c-13.04,13.67-34.74,16.05-40.57,8.11c0,0,38.72-6.62,38.03-30.84
						c-0.46-16.33-27.2-16.33-40.83-3.27c-13.63,13.07-12.12,35.15,2.72,43.14c11.28,6.07,31.52,1.66,42.81-6.57L565.39,322.24z
						 M524.22,320.1c-1.18-2.11-1.31-4.42-0.38-6.94c0.81-2.1,2.19-4.04,4.14-5.83c1.04-0.93,1.69-1.47,1.96-1.62l1.48-0.83
						c4.68-2.62,8.18-2.72,10.49-0.3c0.43,0.46,0.73,0.85,0.92,1.17c1.4,2.51,1.02,5.45-1.15,8.83c-1.8,2.83-4.04,5-6.75,6.51
						C529.78,323.99,526.21,323.66,524.22,320.1z"/>
				</g>
			</g>
			<g>
				<path class="st2" d="M463.84,293.24c5.26-3.61,10.85-5.71,16.75-6.3c7.26-0.71,12.54,1.36,15.86,6.2
					c2.75,4.01,3.14,8.81,1.2,14.41c-1.48,4.37-4.1,8.7-7.85,13c-1.99,2.28-4.51,4.46-7.55,6.54c-2.63,1.8-6.04,3.48-10.25,5.05
					c-1.99,0.96-4.13,1.46-6.43,1.51c3.37,1.96,7.68,2.76,12.93,2.41c4.39-0.27,10.03-1.75,16.92-4.44c2.4-0.94,5.65-2.35,9.74-4.24
					l8.33,7.7c-0.62,0.43-2.55,1.24-5.79,2.45c-11.91,4.4-22.39,6.15-31.44,5.25c-9.4-0.97-18.11-5.51-24.33-13.49
					c-5.63-7.23-3.37-17.81-0.25-23.29C454.25,301.46,458.17,297.13,463.84,293.24z M482.11,321.34c1.97-2.17,3.3-4.45,3.99-6.85
					c0.78-2.87,0.41-5.41-1.11-7.62c-2.56-3.73-6.54-3.75-11.92-0.06c-2.83,1.94-5.1,4.56-6.8,7.86c-2.06,3.95-2.19,7.24-0.4,9.87
					c0.24,0.35,0.61,0.75,1.13,1.21c2.8,2.45,6.65,1.99,11.55-1.37l1.55-1.07C480.39,323.13,481.05,322.47,482.11,321.34z"/>
			</g>
			<g>
				<g>
					<g>
						<path class="st3" d="M611.21,259.69c-8.14,5.15-21.6,8.58-32.64,1.3c-11.04-7.28-10.17-16.79-19.73-20.36
							c-9.56-3.57-14.96,2.63-14.96,2.63s4.86-23.23,35.63-22.29C609.04,221.86,618.71,249.62,611.21,259.69z"/>
					</g>
					<g>
						<path class="st3" d="M621.52,259.76c-4.59-21.61,0.03-37.01,14.03-43.22c14-6.2,23.64,4.96,24.97,12.18
							c-6.3-5.39-13.25-3.49-13.89,3.99c-0.64,7.48-2.08,16.47-10.26,19.73C631.9,254.23,624.74,252.14,621.52,259.76z"/>
					</g>
					<g>
						<path class="st4" d="M622.72,242.23c2.02-7.11,6.48-14.52,15.98-18.33l-0.24-0.3c-16.75,6.71-18.61,19.35-18.4,26.11
							c0,0.11,0,0.22,0,0.3l0.01,0.01c0.09,2.12,0.37,3.61,0.42,4.08l0.58,3.49l0.45,2.16c-0.06-0.34-0.64-4.27-0.22-9.5l0.18-1.09
							c0.02-0.37,0.74-10.46,13.99-15.01l-0.12-0.18C628.63,236.01,624.84,239.21,622.72,242.23z"/>
					</g>
					<g>
						<path class="st4" d="M605.18,247.67c-0.52-2.29-1.52-6.63-1.82-7.23l-0.38-0.02c0.13,0.31,0.52,3.04,0.63,5.42
							c-1.89-2.09-3.98-3.92-6.41-5.5c-5.38-10.56-9.49-12.42-9.66-12.49l-0.09,0.1c0.03,0.01,4.98,4.2,7.54,11.09
							c-5.82-3.15-13.47-5.08-24.39-5.78l0.01,0.15c11.27,1.19,19.1,3.78,25.1,7.86c0.01,0.03,0.02,0.06,0.02,0.09l0.06-0.03
							c4,2.74,7.19,6.15,10.04,10.25c-7.38-3.19-17.07-0.77-18.39-0.04l0.33,0.19c0.78-0.41,12.9-2.08,19.88,2.66
							c0.96,1.56,1.89,3.2,2.82,4.94l0.27,0.65l0.58-0.38l0.63-1.13C609.8,254.37,607.65,250.78,605.18,247.67z"/>
					</g>
				</g>
				<g>
					<path class="st5" d="M614.57,254.33c10.19,11.56,26.01,29.24,18.78,62.83c-5.39,25.01-30.97,22.52-37,16.2
						c-8.48-9.59,2.99-9.33,17.36-10.84C628.09,321,627.47,284.11,614.57,254.33z"/>
				</g>
				<g>
					<path class="st6" d="M617.36,323.9c-7.72,5.75-0.88,12.91-12.65,17.74c-15.68,6.44-36.07-20.43-34.34-39.54
						c1.73-19.1,31.01-21.18,42.36-9.73C624.07,303.82,625.88,317.57,617.36,323.9z"/>
				</g>
			</g>
		</g>
		<g>
			<g>
				<defs>
					<path id="SVGID_1_" d="M607.79,325.83c-4.83,4.49-13.65,2.87-19.7-3.64c-6.05-6.5-7.03-15.42-2.2-19.91
						c4.83-4.49,13.65-2.86,19.7,3.64C611.64,312.42,612.62,321.34,607.79,325.83z"/>
				</defs>
				<clipPath id="SVGID_00000119114043116450783590000017921591508486130083_">
					<use xlink:href="#SVGID_1_"  style="overflow:visible;"/>
				</clipPath>
				<polygon style="clip-path:url(#SVGID_00000119114043116450783590000017921591508486130083_);fill:#CA8B2E;" points="
					612.62,305.72 590.26,297.78 612.62,297.78 				"/>
				<polygon style="clip-path:url(#SVGID_00000119114043116450783590000017921591508486130083_);fill:#CA8B2E;" points="
					612.62,306.48 588.1,297.78 590.26,297.78 612.62,305.72 				"/>
				<polygon style="clip-path:url(#SVGID_00000119114043116450783590000017921591508486130083_);fill:#C98A2E;" points="
					612.62,307.25 585.94,297.78 588.1,297.78 612.62,306.48 				"/>
				<polygon style="clip-path:url(#SVGID_00000119114043116450783590000017921591508486130083_);fill:#C8892E;" points="
					612.62,308.02 583.78,297.78 585.94,297.78 612.62,307.25 				"/>
				<polygon style="clip-path:url(#SVGID_00000119114043116450783590000017921591508486130083_);fill:#C7882F;" points="
					612.62,308.79 582.07,297.94 582.12,297.78 583.78,297.78 612.62,308.02 				"/>
				<polygon style="clip-path:url(#SVGID_00000119114043116450783590000017921591508486130083_);fill:#C6882F;" points="
					612.62,309.55 581.82,298.62 582.07,297.94 612.62,308.79 				"/>
				<polygon style="clip-path:url(#SVGID_00000119114043116450783590000017921591508486130083_);fill:#C5872F;" points="
					612.62,310.32 581.58,299.31 581.82,298.62 612.62,309.55 				"/>
				<polygon style="clip-path:url(#SVGID_00000119114043116450783590000017921591508486130083_);fill:#C4862F;" points="
					612.62,311.09 581.34,299.99 581.58,299.31 612.62,310.32 				"/>
				<polygon style="clip-path:url(#SVGID_00000119114043116450783590000017921591508486130083_);fill:#C3852F;" points="
					612.62,311.85 581.1,300.67 581.34,299.99 612.62,311.09 				"/>
				<polygon style="clip-path:url(#SVGID_00000119114043116450783590000017921591508486130083_);fill:#C2842F;" points="
					612.62,312.62 581.06,301.42 581.06,300.79 581.1,300.67 612.62,311.85 				"/>
				<polygon style="clip-path:url(#SVGID_00000119114043116450783590000017921591508486130083_);fill:#C18330;" points="
					612.62,313.39 581.06,302.19 581.06,301.42 612.62,312.62 				"/>
				<polygon style="clip-path:url(#SVGID_00000119114043116450783590000017921591508486130083_);fill:#C08330;" points="
					612.62,314.16 581.06,302.96 581.06,302.19 612.62,313.39 				"/>
				<polygon style="clip-path:url(#SVGID_00000119114043116450783590000017921591508486130083_);fill:#BF8230;" points="
					612.62,314.92 581.06,303.72 581.06,302.96 612.62,314.16 				"/>
				<polygon style="clip-path:url(#SVGID_00000119114043116450783590000017921591508486130083_);fill:#BE8130;" points="
					612.62,315.69 581.06,304.49 581.06,303.72 612.62,314.92 				"/>
				<polygon style="clip-path:url(#SVGID_00000119114043116450783590000017921591508486130083_);fill:#BD8030;" points="
					612.62,316.46 581.06,305.26 581.06,304.49 612.62,315.69 				"/>
				<polygon style="clip-path:url(#SVGID_00000119114043116450783590000017921591508486130083_);fill:#BC7F31;" points="
					612.62,317.23 581.06,306.03 581.06,305.26 612.62,316.46 				"/>
				<polygon style="clip-path:url(#SVGID_00000119114043116450783590000017921591508486130083_);fill:#BB7E31;" points="
					612.62,317.99 581.06,306.79 581.06,306.03 612.62,317.23 				"/>
				<polygon style="clip-path:url(#SVGID_00000119114043116450783590000017921591508486130083_);fill:#BA7E31;" points="
					612.62,318.76 581.06,307.56 581.06,306.79 612.62,317.99 				"/>
				<polygon style="clip-path:url(#SVGID_00000119114043116450783590000017921591508486130083_);fill:#B97D31;" points="
					612.62,319.53 581.06,308.33 581.06,307.56 612.62,318.76 				"/>
				<polygon style="clip-path:url(#SVGID_00000119114043116450783590000017921591508486130083_);fill:#B87C31;" points="
					612.62,320.3 581.06,309.1 581.06,308.33 612.62,319.53 				"/>
				<polygon style="clip-path:url(#SVGID_00000119114043116450783590000017921591508486130083_);fill:#B77B31;" points="
					612.62,321.06 581.06,309.86 581.06,309.1 612.62,320.3 				"/>
				<polygon style="clip-path:url(#SVGID_00000119114043116450783590000017921591508486130083_);fill:#B67A32;" points="
					612.62,321.83 581.06,310.63 581.06,309.86 612.62,321.06 				"/>
				<polygon style="clip-path:url(#SVGID_00000119114043116450783590000017921591508486130083_);fill:#B57932;" points="
					612.62,322.6 581.06,311.4 581.06,310.63 612.62,321.83 				"/>
				<polygon style="clip-path:url(#SVGID_00000119114043116450783590000017921591508486130083_);fill:#B47932;" points="
					612.62,323.36 581.06,312.16 581.06,311.4 612.62,322.6 				"/>
				<polygon style="clip-path:url(#SVGID_00000119114043116450783590000017921591508486130083_);fill:#B27832;" points="
					612.62,324.13 581.06,312.93 581.06,312.16 612.62,323.36 				"/>
				<polygon style="clip-path:url(#SVGID_00000119114043116450783590000017921591508486130083_);fill:#B17732;" points="
					612.62,324.9 581.06,313.7 581.06,312.93 612.62,324.13 				"/>
				<polygon style="clip-path:url(#SVGID_00000119114043116450783590000017921591508486130083_);fill:#B07633;" points="
					612.62,325.67 581.06,314.47 581.06,313.7 612.62,324.9 				"/>
				<polygon style="clip-path:url(#SVGID_00000119114043116450783590000017921591508486130083_);fill:#AF7533;" points="
					612.62,326.43 581.06,315.23 581.06,314.47 612.62,325.67 				"/>
				<polygon style="clip-path:url(#SVGID_00000119114043116450783590000017921591508486130083_);fill:#AE7433;" points="
					612.62,327.2 581.06,316 581.06,315.23 612.62,326.43 				"/>
				<polygon style="clip-path:url(#SVGID_00000119114043116450783590000017921591508486130083_);fill:#AD7333;" points="
					612.62,327.32 612.41,327.9 581.06,316.77 581.06,316 612.62,327.2 				"/>
				<polygon style="clip-path:url(#SVGID_00000119114043116450783590000017921591508486130083_);fill:#AC7333;" points="
					612.41,327.9 612.17,328.58 581.06,317.54 581.06,316.77 				"/>
				<polygon style="clip-path:url(#SVGID_00000119114043116450783590000017921591508486130083_);fill:#AB7233;" points="
					612.17,328.58 611.93,329.26 581.06,318.3 581.06,317.54 				"/>
				<polygon style="clip-path:url(#SVGID_00000119114043116450783590000017921591508486130083_);fill:#AA7134;" points="
					611.93,329.26 611.69,329.94 581.06,319.07 581.06,318.3 				"/>
				<polygon style="clip-path:url(#SVGID_00000119114043116450783590000017921591508486130083_);fill:#A97034;" points="
					611.69,329.94 611.55,330.32 610.6,330.32 581.06,319.84 581.06,319.07 				"/>
				<polygon style="clip-path:url(#SVGID_00000119114043116450783590000017921591508486130083_);fill:#A86F34;" points="
					608.44,330.32 581.06,320.61 581.06,319.84 610.6,330.32 				"/>
				<polygon style="clip-path:url(#SVGID_00000119114043116450783590000017921591508486130083_);fill:#A76E34;" points="
					606.27,330.32 581.06,321.37 581.06,320.61 608.44,330.32 				"/>
				<polygon style="clip-path:url(#SVGID_00000119114043116450783590000017921591508486130083_);fill:#A66E34;" points="
					604.11,330.32 581.06,322.14 581.06,321.37 606.27,330.32 				"/>
				<polygon style="clip-path:url(#SVGID_00000119114043116450783590000017921591508486130083_);fill:#A56D35;" points="
					601.95,330.32 581.06,322.91 581.06,322.14 604.11,330.32 				"/>
				<polygon style="clip-path:url(#SVGID_00000119114043116450783590000017921591508486130083_);fill:#A46C35;" points="
					599.79,330.32 581.06,323.67 581.06,322.91 601.95,330.32 				"/>
				<polygon style="clip-path:url(#SVGID_00000119114043116450783590000017921591508486130083_);fill:#A36B35;" points="
					597.62,330.32 581.06,324.44 581.06,323.67 599.79,330.32 				"/>
				<polygon style="clip-path:url(#SVGID_00000119114043116450783590000017921591508486130083_);fill:#A26A35;" points="
					595.46,330.32 581.06,325.21 581.06,324.44 597.62,330.32 				"/>
				<polygon style="clip-path:url(#SVGID_00000119114043116450783590000017921591508486130083_);fill:#A16935;" points="
					593.3,330.32 581.06,325.98 581.06,325.21 595.46,330.32 				"/>
				<polygon style="clip-path:url(#SVGID_00000119114043116450783590000017921591508486130083_);fill:#A06935;" points="
					591.14,330.32 581.06,326.74 581.06,325.98 593.3,330.32 				"/>
				<polygon style="clip-path:url(#SVGID_00000119114043116450783590000017921591508486130083_);fill:#9F6836;" points="
					588.98,330.32 581.06,327.51 581.06,326.74 591.14,330.32 				"/>
				<polygon style="clip-path:url(#SVGID_00000119114043116450783590000017921591508486130083_);fill:#9E6736;" points="
					586.81,330.32 581.06,328.28 581.06,327.51 588.98,330.32 				"/>
				<polygon style="clip-path:url(#SVGID_00000119114043116450783590000017921591508486130083_);fill:#9D6636;" points="
					584.65,330.32 581.06,329.05 581.06,328.28 586.81,330.32 				"/>
				<polygon style="clip-path:url(#SVGID_00000119114043116450783590000017921591508486130083_);fill:#9D6636;" points="
					581.06,329.05 584.65,330.32 581.06,330.32 				"/>
			</g>
		</g>
	</g>
</g>
</svg>
