<svg xmlns="http://www.w3.org/2000/svg" xmlns:xlink="http://www.w3.org/1999/xlink" width="400" zoomAndPan="magnify" viewBox="0 0 300 74.999997" height="100" preserveAspectRatio="xMidYMid meet" version="1.0"><rect x="-30" width="360" fill="#ffffff" y="-7.5" height="89.999996" fill-opacity="1"/><rect x="-30" width="360" fill="#ffffff" y="-7.5" height="89.999996" fill-opacity="1"/><path fill="#ffffff" d="M 239.6875 10.675781 C 238.726562 9.246094 237.570312 8.128906 236.070312 7.164062 C 232.800781 5.039062 229.144531 4.769531 227.183594 4.769531 C 226.566406 4.769531 226.21875 4.769531 226.027344 4.769531 L 141.375 8.746094 C 104.128906 10.519531 68.882812 12.179688 67.84375 12.179688 C 66.613281 12.257812 62.917969 12.375 59.917969 16.503906 C 56.300781 21.445312 57.453125 27.273438 57.722656 28.433594 L 60.457031 46.34375 L 61.609375 53.757812 C 61.800781 55.070312 62.300781 58.351562 65.378906 61.941406 C 68.882812 66.070312 73.113281 66.613281 73.613281 66.613281 C 73.613281 66.613281 111.863281 68.734375 147.109375 70.664062 L 158.191406 71.28125 C 204.59375 73.832031 205.058594 73.832031 205.324219 73.832031 L 206.019531 73.832031 C 209.980469 73.832031 214.097656 72.59375 218.332031 70.125 C 225.179688 66.070312 227.71875 59.703125 227.914062 59.46875 C 232.570312 47.65625 241.378906 25.074219 241.609375 24.265625 C 241.609375 24.457031 244.34375 17.738281 239.6875 10.675781 " fill-opacity="1" fill-rule="nonzero"/><path fill="#00b1e9" d="M 237.222656 12.179688 C 236.417969 11.023438 235.453125 10.136719 234.492188 9.441406 C 231.761719 7.664062 228.683594 7.511719 227.105469 7.511719 C 226.488281 7.511719 226.144531 7.511719 226.144531 7.511719 C 226.144531 7.511719 185.164062 9.441406 144.914062 11.410156 C 144.375 11.410156 143.761719 11.488281 143.261719 11.488281 C 143.066406 11.488281 142.835938 11.488281 142.644531 11.488281 C 105.089844 13.261719 68.882812 15 67.921875 15 C 66.882812 15 64.304688 15.078125 62.109375 18.164062 C 58.953125 22.566406 60.339844 27.855469 60.339844 27.855469 L 60.957031 31.867188 L 63.070312 45.996094 L 64.109375 53.140625 C 64.304688 54.027344 64.457031 56.921875 67.382812 60.28125 C 70.191406 63.640625 73.691406 63.988281 73.691406 63.988281 C 73.691406 63.988281 111.9375 66.109375 147.183594 68.039062 C 149.839844 68.234375 152.378906 68.308594 154.917969 68.464844 C 156.074219 68.542969 157.113281 68.542969 158.265625 68.65625 C 183.507812 70.085938 204.789062 71.207031 205.210938 71.207031 C 205.402344 71.207031 205.632812 71.207031 205.902344 71.207031 C 207.671875 71.207031 211.519531 70.933594 216.714844 67.847656 C 222.796875 64.21875 225.066406 58.582031 225.066406 58.582031 C 225.066406 58.582031 238.609375 23.917969 238.878906 23.300781 C 239.148438 22.679688 240.839844 17.585938 237.222656 12.179688 Z M 237.222656 12.179688 " fill-opacity="1" fill-rule="nonzero"/><path fill="#ffffff" d="M 95.238281 25.578125 C 95.433594 25.152344 95.664062 24.882812 96.277344 24.882812 C 96.894531 24.882812 97.316406 25.304688 97.316406 25.925781 L 97.316406 48.660156 C 97.316406 49.277344 96.894531 49.703125 96.277344 49.703125 C 95.664062 49.703125 95.238281 49.277344 95.238281 48.660156 L 95.238281 30.09375 L 86.464844 49.046875 C 86.273438 49.472656 86.042969 49.664062 85.429688 49.664062 C 84.890625 49.664062 84.542969 49.394531 84.390625 49.046875 L 75.578125 30.09375 L 75.578125 48.699219 C 75.578125 49.316406 75.152344 49.742188 74.539062 49.742188 C 73.921875 49.742188 73.5 49.316406 73.5 48.699219 L 73.5 25.960938 C 73.5 25.34375 73.921875 24.921875 74.539062 24.921875 C 75.078125 24.921875 75.347656 25.191406 75.578125 25.613281 L 85.429688 46.769531 Z M 95.238281 25.578125 " fill-opacity="1" fill-rule="nonzero"/><path fill="#ffffff" d="M 95.507812 28.78125 L 95.507812 48.816406 C 95.507812 49.238281 95.855469 49.511719 96.203125 49.511719 C 96.742188 49.511719 96.894531 49.164062 96.894531 48.816406 L 96.894531 26.039062 C 96.894531 25.613281 96.625 25.34375 96.203125 25.34375 C 95.855469 25.34375 95.664062 25.421875 95.507812 25.886719 L 85.390625 47.503906 L 75.308594 25.769531 C 75.117188 25.421875 74.960938 25.230469 74.617188 25.230469 C 74.191406 25.230469 73.921875 25.5 73.921875 25.925781 L 73.921875 48.660156 C 73.921875 49.007812 74.191406 49.355469 74.617188 49.355469 C 75.039062 49.355469 75.308594 49.007812 75.308594 48.660156 L 75.308594 28.664062 L 84.695312 48.929688 C 84.890625 49.277344 85.042969 49.355469 85.390625 49.355469 C 85.734375 49.355469 86.003906 49.164062 86.082031 48.929688 Z M 96.238281 50.128906 C 95.546875 50.128906 94.933594 49.511719 94.933594 48.699219 L 94.933594 31.519531 L 86.660156 49.238281 C 86.390625 49.78125 85.964844 50.050781 85.351562 50.050781 C 84.734375 50.050781 84.3125 49.78125 84.042969 49.164062 L 75.730469 31.40625 L 75.730469 48.621094 C 75.730469 49.433594 75.117188 50.050781 74.421875 50.050781 C 73.613281 50.050781 73 49.433594 73 48.621094 L 73 25.847656 C 73 25.035156 73.613281 24.417969 74.421875 24.417969 C 75.230469 24.417969 75.460938 24.84375 75.730469 25.304688 L 85.3125 45.84375 L 94.894531 25.304688 C 95.085938 24.882812 95.433594 24.417969 96.203125 24.417969 C 96.972656 24.417969 97.625 25.035156 97.625 25.847656 L 97.625 48.582031 C 97.625 49.585938 97.011719 50.128906 96.238281 50.128906 " fill-opacity="1" fill-rule="nonzero"/><path fill="#ffffff" d="M 109.515625 35.113281 C 105.820312 35.113281 103.359375 37.851562 103.359375 41.558594 C 103.359375 45.265625 105.820312 48.003906 109.515625 48.003906 C 113.015625 48.003906 115.59375 44.992188 115.59375 41.558594 C 115.554688 37.851562 113.09375 35.113281 109.515625 35.113281 M 117.75 48.699219 C 117.75 49.316406 117.328125 49.742188 116.710938 49.742188 C 116.09375 49.742188 115.671875 49.316406 115.671875 48.699219 L 115.671875 46.847656 C 114.363281 48.777344 112.246094 50.011719 109.515625 50.011719 C 104.242188 50.011719 101.242188 46.113281 101.242188 41.636719 C 101.242188 36.617188 104.9375 33.257812 109.59375 33.257812 C 114.246094 33.257812 117.863281 36.617188 117.863281 41.636719 L 117.863281 48.699219 Z M 117.75 48.699219 " fill-opacity="1" fill-rule="nonzero"/><path fill="#ffffff" d="M 109.515625 35.457031 C 106.089844 35.457031 103.628906 38.007812 103.628906 41.636719 C 103.628906 45.265625 106.015625 47.8125 109.515625 47.8125 C 112.785156 47.8125 115.324219 45.070312 115.324219 41.636719 C 115.285156 38.046875 112.824219 35.457031 109.515625 35.457031 M 109.515625 48.351562 C 105.746094 48.351562 103.011719 45.535156 103.011719 41.558594 C 103.011719 37.660156 105.746094 34.765625 109.515625 34.765625 C 113.210938 34.765625 115.941406 37.582031 115.941406 41.558594 C 115.902344 45.457031 113.09375 48.351562 109.515625 48.351562 M 109.515625 33.527344 C 104.859375 33.527344 101.511719 36.886719 101.511719 41.558594 C 101.511719 45.457031 103.972656 49.585938 109.4375 49.585938 C 111.902344 49.585938 114.015625 48.546875 115.324219 46.578125 L 115.863281 45.6875 L 115.863281 48.582031 C 115.863281 49.007812 116.210938 49.394531 116.671875 49.394531 C 117.132812 49.394531 117.480469 49.046875 117.480469 48.582031 L 117.480469 41.519531 C 117.402344 36.886719 114.171875 33.527344 109.515625 33.527344 M 109.398438 50.28125 C 103.511719 50.28125 100.859375 45.765625 100.859375 41.636719 C 100.859375 36.617188 104.472656 32.988281 109.476562 32.988281 C 114.402344 32.988281 118.019531 36.617188 118.019531 41.710938 L 118.019531 48.777344 C 118.019531 49.585938 117.402344 50.207031 116.59375 50.207031 C 115.789062 50.207031 115.171875 49.585938 115.171875 48.777344 L 115.171875 47.8125 C 113.824219 49.394531 111.785156 50.28125 109.398438 50.28125 " fill-opacity="1" fill-rule="nonzero"/><path fill="#ffffff" d="M 129.101562 33.722656 C 129.523438 33.722656 129.984375 34.144531 129.984375 34.609375 C 129.984375 35.148438 129.5625 35.496094 129.101562 35.496094 L 125.40625 35.496094 L 125.40625 48.738281 C 125.40625 49.355469 124.984375 49.78125 124.367188 49.78125 C 123.753906 49.78125 123.328125 49.355469 123.328125 48.738281 L 123.328125 35.457031 L 120.058594 35.457031 C 119.519531 35.457031 119.171875 35.035156 119.171875 34.570312 C 119.171875 34.03125 119.597656 33.683594 120.058594 33.683594 L 123.328125 33.683594 L 123.328125 28.585938 C 123.328125 27.96875 123.753906 27.546875 124.367188 27.546875 C 124.984375 27.546875 125.40625 27.96875 125.40625 28.585938 L 125.40625 33.722656 Z M 129.101562 33.722656 " fill-opacity="1" fill-rule="nonzero"/><path fill="#ffffff" d="M 120.058594 33.992188 C 119.710938 33.992188 119.441406 34.261719 119.441406 34.609375 C 119.441406 34.957031 119.710938 35.226562 120.058594 35.226562 L 123.558594 35.226562 L 123.558594 48.738281 C 123.558594 49.164062 123.90625 49.550781 124.367188 49.550781 C 124.828125 49.550781 125.175781 49.203125 125.175781 48.738281 L 125.175781 35.226562 L 129.140625 35.226562 C 129.484375 35.226562 129.753906 34.957031 129.753906 34.609375 C 129.753906 34.261719 129.484375 33.992188 129.140625 33.992188 L 125.175781 33.992188 L 125.175781 28.585938 C 125.175781 28.164062 124.828125 27.777344 124.367188 27.777344 C 123.90625 27.777344 123.558594 28.125 123.558594 28.585938 L 123.558594 33.953125 Z M 124.367188 50.128906 C 123.558594 50.128906 122.945312 49.511719 122.945312 48.699219 L 122.945312 35.804688 L 120.058594 35.804688 C 119.367188 35.804688 118.828125 35.265625 118.828125 34.570312 C 118.828125 33.875 119.367188 33.335938 120.058594 33.335938 L 122.945312 33.335938 L 122.945312 28.585938 C 122.945312 27.777344 123.558594 27.160156 124.367188 27.160156 C 125.175781 27.160156 125.792969 27.777344 125.792969 28.585938 L 125.792969 33.335938 L 129.140625 33.335938 C 129.832031 33.335938 130.371094 33.875 130.371094 34.570312 C 130.371094 35.265625 129.832031 35.804688 129.140625 35.804688 L 125.792969 35.804688 L 125.792969 48.699219 C 125.753906 49.511719 125.136719 50.128906 124.367188 50.128906 " fill-opacity="1" fill-rule="nonzero"/><path fill="#ffffff" d="M 146.492188 48.699219 C 146.492188 49.316406 146.070312 49.742188 145.453125 49.742188 C 144.839844 49.742188 144.414062 49.316406 144.414062 48.699219 L 144.414062 40.59375 C 144.414062 37.3125 142.761719 35.226562 139.296875 35.226562 C 136.21875 35.226562 133.832031 37.503906 133.832031 41.054688 L 133.832031 48.621094 C 133.832031 49.238281 133.410156 49.664062 132.792969 49.664062 C 132.179688 49.664062 131.753906 49.238281 131.753906 48.621094 L 131.753906 25.960938 C 131.753906 25.34375 132.179688 24.921875 132.792969 24.921875 C 133.410156 24.921875 133.832031 25.34375 133.832031 25.960938 L 133.832031 36.269531 C 134.988281 34.222656 137.105469 33.105469 139.71875 33.105469 C 143.953125 33.105469 146.492188 36.191406 146.492188 40.4375 Z M 146.492188 48.699219 " fill-opacity="1" fill-rule="nonzero"/><path fill="#ffffff" d="M 139.296875 34.957031 C 142.722656 34.957031 144.644531 37.003906 144.644531 40.59375 L 144.644531 48.699219 C 144.644531 49.125 144.992188 49.511719 145.453125 49.511719 C 145.914062 49.511719 146.261719 49.164062 146.261719 48.699219 L 146.261719 40.59375 C 146.261719 36.347656 143.605469 33.527344 139.757812 33.527344 C 137.21875 33.527344 135.179688 34.570312 134.140625 36.539062 L 133.527344 37.503906 L 133.527344 25.960938 C 133.527344 25.539062 133.179688 25.152344 132.71875 25.152344 C 132.253906 25.152344 131.910156 25.5 131.910156 25.960938 L 131.910156 48.621094 C 131.910156 49.046875 132.253906 49.433594 132.71875 49.433594 C 133.179688 49.433594 133.527344 49.085938 133.527344 48.621094 L 133.527344 41.054688 C 133.488281 37.503906 135.871094 34.957031 139.296875 34.957031 M 145.453125 50.128906 C 144.644531 50.128906 144.03125 49.511719 144.03125 48.699219 L 144.03125 40.59375 C 144.03125 37.3125 142.375 35.574219 139.296875 35.574219 C 136.296875 35.574219 134.179688 37.851562 134.179688 41.132812 L 134.179688 48.699219 C 134.179688 49.511719 133.5625 50.128906 132.757812 50.128906 C 131.949219 50.128906 131.332031 49.511719 131.332031 48.699219 L 131.332031 26.039062 C 131.332031 25.230469 131.949219 24.613281 132.757812 24.613281 C 133.5625 24.613281 134.179688 25.230469 134.179688 26.039062 L 134.179688 35.382812 C 135.488281 33.800781 137.449219 32.910156 139.796875 32.910156 C 144.03125 32.910156 146.917969 36 146.917969 40.59375 L 146.917969 48.699219 C 146.878906 49.511719 146.261719 50.128906 145.453125 50.128906 " fill-opacity="1" fill-rule="nonzero"/><path fill="#ffffff" d="M 151.765625 49.859375 C 151.148438 49.859375 150.726562 49.433594 150.726562 48.816406 L 150.726562 26.117188 C 150.726562 25.5 151.148438 25.074219 151.765625 25.074219 C 152.378906 25.074219 152.804688 25.5 152.804688 26.117188 L 152.804688 48.777344 C 152.917969 49.316406 152.378906 49.859375 151.765625 49.859375 " fill-opacity="1" fill-rule="nonzero"/><path fill="#ffffff" d="M 151.765625 25.230469 C 151.339844 25.230469 150.957031 25.578125 150.957031 26.039062 L 150.957031 48.699219 C 150.957031 49.125 151.300781 49.511719 151.765625 49.511719 C 152.226562 49.511719 152.574219 49.164062 152.574219 48.699219 L 152.574219 26.039062 C 152.574219 25.578125 152.226562 25.230469 151.765625 25.230469 M 151.765625 50.128906 C 150.957031 50.128906 150.339844 49.511719 150.339844 48.699219 L 150.339844 26.039062 C 150.339844 25.230469 150.957031 24.613281 151.765625 24.613281 C 152.574219 24.613281 153.1875 25.230469 153.1875 26.039062 L 153.1875 48.699219 C 153.1875 49.511719 152.574219 50.128906 151.765625 50.128906 " fill-opacity="1" fill-rule="nonzero"/><path fill="#ffffff" d="M 164.347656 35.113281 C 161.191406 35.113281 158.804688 37.582031 158.535156 40.59375 L 169.964844 40.59375 C 169.734375 37.425781 167.5 35.113281 164.347656 35.113281 M 172.003906 41.480469 C 172.003906 42.019531 171.582031 42.367188 171.117188 42.367188 L 158.535156 42.367188 C 158.613281 45.265625 160.808594 48.121094 164.617188 48.121094 C 166.65625 48.121094 168.234375 47.425781 169.542969 45.84375 C 169.734375 45.648438 169.964844 45.417969 170.425781 45.417969 C 171.042969 45.417969 171.3125 45.84375 171.3125 46.304688 C 171.3125 46.578125 171.234375 46.730469 171.117188 46.925781 C 169.886719 48.582031 167.5 50.011719 164.617188 50.011719 C 159.421875 50.011719 156.265625 46.035156 156.265625 41.636719 C 156.265625 37.234375 159.613281 33.257812 164.347656 33.257812 C 168.847656 33.257812 172.003906 36.808594 172.003906 41.480469 " fill-opacity="1" fill-rule="nonzero"/><path fill="#ffffff" d="M 158.921875 40.246094 L 169.65625 40.246094 C 169.234375 37.425781 167.117188 35.382812 164.386719 35.382812 C 161.539062 35.382812 159.34375 37.425781 158.921875 40.246094 M 170.347656 40.863281 L 158.230469 40.863281 L 158.230469 40.515625 C 158.574219 37.15625 161.113281 34.765625 164.386719 34.765625 C 167.539062 34.765625 170.003906 37.15625 170.347656 40.515625 Z M 164.347656 33.527344 C 159.960938 33.527344 156.535156 37.042969 156.535156 41.558594 C 156.535156 45.535156 159.269531 49.585938 164.539062 49.585938 C 167.078125 49.585938 169.464844 48.429688 170.773438 46.691406 C 170.847656 46.5 170.964844 46.421875 170.964844 46.269531 C 170.964844 45.996094 170.773438 45.648438 170.347656 45.648438 C 170.078125 45.648438 169.925781 45.84375 169.734375 45.996094 C 168.425781 47.582031 166.65625 48.390625 164.539062 48.390625 C 160.5 48.390625 158.230469 45.300781 158.113281 42.292969 L 158.113281 41.90625 L 171.042969 41.90625 C 171.386719 41.90625 171.65625 41.636719 171.65625 41.289062 C 171.65625 36.886719 168.578125 33.527344 164.347656 33.527344 M 164.617188 50.28125 C 159 50.28125 155.996094 45.957031 155.996094 41.636719 C 155.996094 36.769531 159.691406 32.988281 164.421875 32.988281 C 169.003906 32.988281 172.351562 36.5 172.351562 41.441406 C 172.351562 42.136719 171.8125 42.675781 171.117188 42.675781 L 158.804688 42.675781 C 159.074219 45.339844 161.074219 47.8125 164.617188 47.8125 C 166.539062 47.8125 168.039062 47.117188 169.347656 45.613281 C 169.617188 45.339844 169.886719 44.992188 170.386719 44.992188 C 171.082031 44.992188 171.617188 45.535156 171.617188 46.230469 C 171.617188 46.5 171.542969 46.769531 171.351562 47.039062 C 169.886719 49.046875 167.347656 50.28125 164.617188 50.28125 " fill-opacity="1" fill-rule="nonzero"/><path fill="#ffffff" d="M 182.738281 33.722656 C 183.164062 33.722656 183.625 34.144531 183.625 34.609375 C 183.625 35.148438 183.199219 35.496094 182.738281 35.496094 L 179.046875 35.496094 L 179.046875 48.738281 C 179.046875 49.355469 178.621094 49.78125 178.007812 49.78125 C 177.390625 49.78125 176.96875 49.355469 176.96875 48.738281 L 176.96875 35.457031 L 173.695312 35.457031 C 173.160156 35.457031 172.8125 35.035156 172.8125 34.570312 C 172.8125 34.03125 173.234375 33.683594 173.695312 33.683594 L 176.96875 33.683594 L 176.96875 28.585938 C 176.96875 27.96875 177.390625 27.546875 178.007812 27.546875 C 178.621094 27.546875 179.046875 27.96875 179.046875 28.585938 L 179.046875 33.722656 Z M 182.738281 33.722656 " fill-opacity="1" fill-rule="nonzero"/><path fill="#ffffff" d="M 173.660156 33.992188 C 173.3125 33.992188 173.042969 34.261719 173.042969 34.609375 C 173.042969 34.957031 173.3125 35.226562 173.660156 35.226562 L 177.160156 35.226562 L 177.160156 48.738281 C 177.160156 49.164062 177.507812 49.550781 177.96875 49.550781 C 178.429688 49.550781 178.777344 49.203125 178.777344 48.738281 L 178.777344 35.226562 L 182.738281 35.226562 C 183.085938 35.226562 183.355469 34.957031 183.355469 34.609375 C 183.355469 34.261719 183.085938 33.992188 182.738281 33.992188 L 178.777344 33.992188 L 178.777344 28.585938 C 178.777344 28.164062 178.429688 27.777344 177.96875 27.777344 C 177.507812 27.777344 177.160156 28.125 177.160156 28.585938 L 177.160156 33.953125 Z M 177.96875 50.128906 C 177.160156 50.128906 176.542969 49.511719 176.542969 48.699219 L 176.542969 35.804688 L 173.660156 35.804688 C 172.964844 35.804688 172.425781 35.265625 172.425781 34.570312 C 172.425781 33.875 172.964844 33.335938 173.660156 33.335938 L 176.542969 33.335938 L 176.542969 28.585938 C 176.542969 27.777344 177.160156 27.160156 177.96875 27.160156 C 178.777344 27.160156 179.390625 27.777344 179.390625 28.585938 L 179.390625 33.335938 L 182.738281 33.335938 C 183.433594 33.335938 183.96875 33.875 183.96875 34.570312 C 183.96875 35.265625 183.433594 35.804688 182.738281 35.804688 L 179.390625 35.804688 L 179.390625 48.699219 C 179.390625 49.511719 178.777344 50.128906 177.96875 50.128906 " fill-opacity="1" fill-rule="nonzero"/><path fill="#ffffff" d="M 186.433594 49.859375 C 185.816406 49.859375 185.394531 49.433594 185.394531 48.816406 L 185.394531 34.609375 C 185.394531 33.992188 185.816406 33.566406 186.433594 33.566406 C 187.050781 33.566406 187.472656 33.992188 187.472656 34.609375 L 187.472656 48.816406 C 187.472656 49.316406 187.050781 49.859375 186.433594 49.859375 M 186.433594 27.546875 C 187.242188 27.546875 187.855469 28.164062 187.855469 28.972656 C 187.855469 29.785156 187.242188 30.402344 186.433594 30.402344 C 185.625 30.402344 185.007812 29.785156 185.007812 28.972656 C 185.007812 28.164062 185.625 27.546875 186.433594 27.546875 " fill-opacity="1" fill-rule="nonzero"/><path fill="#ffffff" d="M 186.433594 27.816406 C 185.816406 27.816406 185.394531 28.238281 185.394531 28.859375 C 185.394531 29.476562 185.816406 29.898438 186.433594 29.898438 C 187.050781 29.898438 187.472656 29.476562 187.472656 28.859375 C 187.472656 28.316406 186.933594 27.816406 186.433594 27.816406 M 186.433594 30.632812 C 185.472656 30.632812 184.777344 29.824219 184.777344 28.972656 C 184.777344 28.007812 185.585938 27.3125 186.433594 27.3125 C 187.394531 27.3125 188.085938 28.125 188.085938 28.972656 C 188.085938 29.824219 187.28125 30.632812 186.433594 30.632812 M 186.433594 33.722656 C 186.011719 33.722656 185.625 34.070312 185.625 34.53125 L 185.625 48.738281 C 185.625 49.164062 185.972656 49.550781 186.433594 49.550781 C 186.894531 49.550781 187.242188 49.203125 187.242188 48.738281 L 187.242188 34.492188 C 187.125 34.070312 186.855469 33.722656 186.433594 33.722656 M 186.433594 50.128906 C 185.625 50.128906 185.007812 49.511719 185.007812 48.699219 L 185.007812 34.492188 C 185.007812 33.683594 185.625 33.066406 186.433594 33.066406 C 187.242188 33.066406 187.855469 33.683594 187.855469 34.492188 L 187.855469 48.699219 C 187.820312 49.511719 187.203125 50.128906 186.433594 50.128906 " fill-opacity="1" fill-rule="nonzero"/><path fill="#ffffff" d="M 205.59375 36.347656 C 205.789062 36.539062 205.789062 36.769531 205.789062 36.964844 C 205.789062 37.503906 205.363281 37.851562 204.75 37.851562 C 204.402344 37.851562 204.132812 37.660156 203.941406 37.425781 C 202.632812 35.84375 201.285156 35.148438 199.09375 35.148438 C 195.476562 35.148438 192.9375 38.046875 192.9375 41.597656 C 192.9375 45.226562 195.476562 48.042969 199.09375 48.042969 C 201.207031 48.042969 202.59375 47.347656 203.941406 45.765625 C 204.132812 45.574219 204.363281 45.339844 204.75 45.339844 C 205.363281 45.339844 205.789062 45.6875 205.789062 46.230469 C 205.789062 46.5 205.710938 46.652344 205.59375 46.847656 C 204.554688 48.507812 202.171875 49.933594 199.167969 49.933594 C 194.4375 49.933594 190.820312 46.304688 190.820312 41.558594 C 190.820312 36.808594 194.4375 33.179688 199.167969 33.179688 C 202.171875 33.257812 204.519531 34.6875 205.59375 36.347656 " fill-opacity="1" fill-rule="nonzero"/><path fill="#ffffff" d="M 199.167969 33.527344 C 194.589844 33.527344 191.167969 36.964844 191.167969 41.558594 C 191.167969 46.152344 194.589844 49.585938 199.167969 49.585938 C 202.246094 49.585938 204.441406 48.003906 205.324219 46.691406 C 205.402344 46.5 205.519531 46.34375 205.519531 46.269531 C 205.519531 45.921875 205.171875 45.648438 204.824219 45.648438 C 204.632812 45.648438 204.480469 45.726562 204.289062 45.996094 C 202.863281 47.65625 201.402344 48.390625 199.285156 48.390625 C 195.589844 48.390625 192.859375 45.496094 192.859375 41.597656 C 192.859375 37.699219 195.667969 34.800781 199.285156 34.800781 C 201.402344 34.800781 202.902344 35.496094 204.289062 37.195312 C 204.480469 37.390625 204.632812 37.542969 204.824219 37.542969 C 205.171875 37.542969 205.519531 37.351562 205.519531 36.925781 C 205.519531 36.734375 205.519531 36.65625 205.324219 36.5 C 204.441406 35.113281 202.246094 33.527344 199.167969 33.527344 M 199.167969 50.28125 C 194.246094 50.28125 190.550781 46.578125 190.550781 41.636719 C 190.550781 36.695312 194.246094 32.988281 199.167969 32.988281 C 202.515625 32.988281 204.789062 34.648438 205.863281 36.152344 C 206.058594 36.425781 206.132812 36.695312 206.132812 36.964844 C 206.132812 37.660156 205.519531 38.199219 204.710938 38.199219 C 204.171875 38.199219 203.824219 37.851562 203.75 37.660156 C 202.441406 36.078125 201.207031 35.457031 199.167969 35.457031 C 195.820312 35.457031 193.359375 38.121094 193.359375 41.636719 C 193.359375 45.148438 195.898438 47.8125 199.167969 47.8125 C 201.09375 47.8125 202.441406 47.195312 203.75 45.613281 C 203.941406 45.417969 204.171875 45.070312 204.710938 45.070312 C 205.519531 45.070312 206.132812 45.613281 206.132812 46.304688 C 206.132812 46.578125 206.058594 46.847656 205.863281 47.117188 C 204.789062 48.621094 202.515625 50.28125 199.167969 50.28125 " fill-opacity="1" fill-rule="nonzero"/><path fill="#ffffff" d="M 214.832031 49.933594 C 212.445312 49.933594 210.25 49.125 208.75 47.8125 C 208.480469 47.617188 208.328125 47.269531 208.328125 46.925781 C 208.328125 46.5 208.671875 46.113281 209.210938 46.113281 C 209.558594 46.113281 209.828125 46.304688 210.097656 46.460938 C 211.519531 47.503906 213.253906 48.121094 215.097656 48.121094 C 217.640625 48.121094 219.140625 47.078125 219.140625 45.457031 C 219.140625 43.605469 217.292969 43.0625 214.90625 42.445312 C 210.058594 41.132812 208.597656 39.628906 208.597656 37.3125 C 208.597656 34.492188 211.136719 33.066406 214.832031 33.066406 C 216.484375 33.066406 218.179688 33.488281 219.753906 34.300781 C 220.371094 34.570312 220.71875 34.917969 220.71875 35.34375 C 220.71875 35.769531 220.371094 36.230469 219.832031 36.230469 C 219.5625 36.230469 219.292969 36.039062 218.949219 35.882812 C 217.792969 35.265625 216.214844 34.839844 214.832031 34.839844 C 212.445312 34.839844 210.714844 35.535156 210.714844 37.234375 C 210.714844 38.738281 211.75 39.511719 215.097656 40.515625 C 218.714844 41.558594 221.179688 42.5625 221.179688 45.378906 C 221.0625 48.082031 218.871094 49.933594 214.832031 49.933594 " fill-opacity="1" fill-rule="nonzero"/><path fill="#ffffff" d="M 209.097656 46.578125 C 208.75 46.578125 208.558594 46.769531 208.558594 47.117188 C 208.558594 47.308594 208.636719 47.542969 208.90625 47.734375 C 210.480469 49.046875 212.597656 49.78125 214.792969 49.78125 C 218.484375 49.78125 220.753906 48.199219 220.753906 45.648438 C 220.753906 42.988281 218.484375 42.136719 214.867188 41.054688 C 211.789062 40.167969 210.210938 39.394531 210.210938 37.542969 C 210.210938 35.769531 211.789062 34.878906 214.597656 34.878906 C 216.023438 34.878906 217.484375 35.304688 218.910156 36.039062 C 219.179688 36.230469 219.449219 36.308594 219.601562 36.308594 C 219.949219 36.308594 220.21875 36.113281 220.21875 35.769531 C 220.21875 35.574219 220.140625 35.34375 219.410156 34.957031 C 217.910156 34.144531 216.253906 33.722656 214.675781 33.722656 C 210.90625 33.722656 208.710938 35.148438 208.710938 37.621094 C 208.710938 39.472656 209.75 41.054688 214.867188 42.484375 C 217.140625 43.101562 219.253906 43.71875 219.253906 45.84375 C 219.253906 47.695312 217.601562 48.738281 214.867188 48.738281 C 213.023438 48.738281 211.097656 48.121094 209.675781 46.960938 C 209.558594 46.691406 209.367188 46.578125 209.097656 46.578125 M 214.832031 50.28125 C 212.445312 50.28125 210.175781 49.472656 208.519531 48.160156 C 208.171875 47.890625 207.980469 47.542969 207.980469 47.117188 C 207.980469 46.5 208.519531 45.957031 209.136719 45.957031 C 209.675781 45.957031 209.945312 46.230469 210.175781 46.382812 C 211.484375 47.425781 213.253906 48.042969 214.90625 48.042969 C 217.175781 48.042969 218.679688 47.15625 218.679688 45.765625 C 218.679688 44.261719 217.175781 43.71875 214.714844 43.023438 C 209.980469 41.710938 208.136719 40.207031 208.136719 37.542969 C 208.136719 34.648438 210.519531 32.949219 214.714844 32.949219 C 216.484375 32.949219 218.214844 33.375 219.832031 34.261719 C 220.371094 34.53125 220.988281 34.957031 220.988281 35.691406 C 220.988281 36.386719 220.449219 36.847656 219.753906 36.847656 C 219.410156 36.847656 219.140625 36.65625 218.792969 36.5 C 217.484375 35.804688 216.0625 35.457031 214.753906 35.457031 C 213.328125 35.457031 210.980469 35.730469 210.980469 37.503906 C 210.980469 38.664062 211.597656 39.433594 215.214844 40.398438 C 218.910156 41.441406 221.523438 42.523438 221.523438 45.613281 C 221.410156 48.429688 218.871094 50.28125 214.832031 50.28125 " fill-opacity="1" fill-rule="nonzero"/></svg>